<svg width="491" height="491" viewBox="0 0 491 491" fill="none" xmlns="http://www.w3.org/2000/svg">
<path d="M470.727 216.963C466.196 212.592 459.156 212.359 454.356 216.262H454.247L453.515 216.993L245.491 424.729L37.4648 216.993L37.4494 216.978L37.4338 216.963C32.527 212.23 24.7084 212.367 19.9689 217.266L19.9685 217.266C15.3439 222.048 15.3436 229.63 19.9688 234.411L19.9838 234.427L19.9992 234.442L236.768 450.889L236.768 450.889C241.591 455.704 249.409 455.704 254.233 450.889L254.233 450.889L471 234.443L471.016 234.428L471.031 234.412C475.773 229.511 475.636 221.697 470.728 216.963L470.727 216.963Z" fill="black" stroke="black" stroke-width="5"/>
<path d="M471.036 39.2787C466.457 34.5255 458.999 34.2411 454.075 38.5132H454.012L453.28 39.2475L245.37 247.645L37.4592 39.2475L37.4439 39.2321L37.4283 39.217C32.5225 34.4673 24.7021 34.6049 19.9642 39.5207L19.9638 39.521C15.3454 44.3145 15.3454 51.9108 19.9638 56.7042L19.979 56.72L19.9944 56.7354L236.647 273.876L236.647 273.876C241.47 278.708 249.289 278.708 254.111 273.876L254.112 273.876L470.733 56.7658C470.738 56.7605 470.744 56.7551 470.749 56.7498C475.635 52.0019 475.765 44.1869 471.036 39.2787Z" fill="black" stroke="black" stroke-width="5"/>
</svg>
