<svg width="94" height="63" viewBox="0 0 94 63" fill="none" xmlns="http://www.w3.org/2000/svg">
<g clip-path="url(#clip0)">
<path d="M62.5082 30.2689C61.9461 29.6416 48.4248 14.8887 31.4892 14.8887C14.5537 14.8887 1.0325 29.6416 0.470248 30.2689C-0.156831 30.97 -0.156831 32.03 0.470248 32.7311C1.0325 33.3584 14.5539 48.1113 31.4892 48.1113C48.4245 48.1113 61.946 33.3584 62.5082 32.7311C63.1352 32.03 63.1352 30.97 62.5082 30.2689ZM31.4892 44.4199C24.3684 44.4199 18.5737 38.6233 18.5737 31.5C18.5737 24.3767 24.3684 18.5801 31.4892 18.5801C38.6101 18.5801 44.4047 24.3767 44.4047 31.5C44.4047 38.6233 38.6101 44.4199 31.4892 44.4199Z" fill="black"/>
<path d="M33.3343 27.8086C33.3343 25.9518 34.2557 24.3184 35.6575 23.3137C34.3996 22.6695 32.9966 22.2715 31.4892 22.2715C26.4026 22.2715 22.2639 26.4116 22.2639 31.5C22.2639 36.5884 26.4026 40.7285 31.4892 40.7285C36.0433 40.7285 39.8127 37.4021 40.5574 33.0556C36.8419 34.2522 33.3343 31.4412 33.3343 27.8086Z" fill="black"/>
</g>
<g opacity="0.3" clip-path="url(#clip1)" filter="url(#filter0_d)">
<path d="M67.3923 38.4381C71.3429 38.4381 74.5455 35.2344 74.5455 31.2824C74.5455 27.3305 71.3429 24.1268 67.3923 24.1268C63.4417 24.1268 60.2391 27.3305 60.2391 31.2824C60.2391 35.2344 63.4417 38.4381 67.3923 38.4381Z" fill="black"/>
<path d="M77.8393 13.1724L77.3821 10.8859C77.1353 9.65142 76.0428 8.75537 74.7842 8.75537H60.0004C58.742 8.75537 57.6493 9.65142 57.4026 10.8859L56.9454 13.1724H77.8393Z" fill="black"/>
<path d="M86.026 15.8227C82.9154 15.8227 50.2144 15.8227 48.7587 15.8227C46.5674 15.8227 44.7847 17.606 44.7847 19.7981V42.7668C44.7847 44.9588 46.5674 46.7422 48.7587 46.7422H86.026C88.2173 46.7422 90 44.9588 90 42.7668V19.7981C90 17.606 88.2173 15.8227 86.026 15.8227ZM56.0885 24.1268H51.8496C51.118 24.1268 50.5249 23.5335 50.5249 22.8017C50.5249 22.0698 51.118 21.4765 51.8496 21.4765H56.0885C56.8201 21.4765 57.4132 22.0698 57.4132 22.8017C57.4132 23.5335 56.8201 24.1268 56.0885 24.1268ZM67.3923 41.0883C61.9872 41.0883 57.5898 36.6894 57.5898 31.2824C57.5898 25.8754 61.9872 21.4765 67.3923 21.4765C72.7975 21.4765 77.1949 25.8754 77.1949 31.2824C77.1949 36.6894 72.7975 41.0883 67.3923 41.0883Z" fill="black"/>
</g>
<defs>
<filter id="filter0_d" x="40.7847" y="5.13336" width="53.2153" height="53.2308" filterUnits="userSpaceOnUse" color-interpolation-filters="sRGB">
<feFlood flood-opacity="0" result="BackgroundImageFix"/>
<feColorMatrix in="SourceAlpha" type="matrix" values="0 0 0 0 0 0 0 0 0 0 0 0 0 0 0 0 0 0 127 0"/>
<feOffset dy="4"/>
<feGaussianBlur stdDeviation="2"/>
<feColorMatrix type="matrix" values="0 0 0 0 0 0 0 0 0 0 0 0 0 0 0 0 0 0 0.25 0"/>
<feBlend mode="normal" in2="BackgroundImageFix" result="effect1_dropShadow"/>
<feBlend mode="normal" in="SourceGraphic" in2="effect1_dropShadow" result="shape"/>
</filter>
<clipPath id="clip0">
<rect width="62.9785" height="63" fill="white"/>
</clipPath>
<clipPath id="clip1">
<rect width="45.2153" height="45.2308" fill="white" transform="translate(44.7847 5.13336)"/>
</clipPath>
</defs>
</svg>
